<svg id="Capa_1" data-name="Capa 1" xmlns="http://www.w3.org/2000/svg" viewBox="0 0 1188.04 188.72"><defs><style>.cls-1,.cls-2{font-size:121.49px;font-family:Constantia, Constantia;}.cls-1,.cls-7{fill:#e20613;}.cls-2,.cls-5,.cls-9{fill:#11110c;}.cls-3{fill:#15120e;}.cls-3,.cls-4,.cls-5,.cls-6,.cls-7,.cls-8{fill-rule:evenodd;}.cls-4,.cls-6,.cls-8{fill:none;stroke-miterlimit:7.66;stroke-width:0.57px;}.cls-4{stroke:#15120e;}.cls-6{stroke:#11110c;}.cls-8{stroke:#e20613;}.cls-9{font-size:59.58px;font-family:TimesNewRomanPSMT, Times New Roman;}.cls-10{fill:#fff;}</style></defs><title>Sin título-1</title><text class="cls-1" transform="translate(230.05 156.88)">C</text><text class="cls-1" transform="translate(311.59 156.88)">A</text><text class="cls-1" transform="translate(417.66 157.82)">R</text><text class="cls-2" transform="translate(505.27 158.29)">M</text><text class="cls-2" transform="translate(635.4 156.18)">O</text><text class="cls-2" transform="translate(747.3 158.29)">N</text><text class="cls-2" transform="translate(849.87 158.29)">T</text><text class="cls-2" transform="translate(941.92 158.29)">I</text><polygon class="cls-3" points="88.01 114.36 78.19 110.16 112.77 43.34 122.12 48.25 88.01 114.36"/><polygon class="cls-4" points="88.01 114.36 78.19 110.16 112.77 43.34 122.12 48.25 88.01 114.36"/><path class="cls-5" d="M219.53,258.6,209,254.39c4-7,8.18-14.25,12.15-21.26,29.91,10.05,50.23,32,58.18,58.41,7.94,26.63-4,63.31-24.77,79.9-1.87-4.67-3.74-9.35-5.61-13.79h5.38c10.51-12.38,17-28.5,17-50.69-3-26.4-18.45-46.49-44.39-61.45C224.67,250,222.1,254.16,219.53,258.6Z" transform="translate(-85.96 -232.78)"/><path class="cls-6" d="M219.53,258.6,209,254.39c4-7,8.18-14.25,12.15-21.26,29.91,10.05,50.23,32,58.18,58.41,7.94,26.63-4,63.31-24.77,79.9-1.87-4.67-3.74-9.35-5.61-13.79h5.38c10.51-12.38,17-28.5,17-50.69-3-26.4-18.45-46.49-44.39-61.45C224.67,250,222.1,254.16,219.53,258.6Z" transform="translate(-85.96 -232.78)"/><path class="cls-5" d="M204.11,377.05c.7-3.51,1.16-7-.24-11-20.79-40.42-41.58-80.61-62.38-121-20.79,11.21-33.87,26.16-41.11,44.15-10.52,38.08-.7,53.5,14.25,69.39h4l-4.91,13.32c-23.36-21-32.47-47-24.76-79.44,9.34-31.3,30.6-49.06,58.41-59.34,22.42,43.46,45.09,86.91,67.51,130.37,3,13.31,0,24.53-13.08,30.83-8.64,3.51-18.46,3.74-30.14,2.11-9.81-2.34-16.59-7.48-19.39-16.82.24-4.21.24-8.41.47-12.62,3.5,1.17,7.24,2.57,10.75,3.74v6.54c1.16,7.48,9.57,10.51,15.42,11C190.56,389,201.77,386.39,204.11,377.05Z" transform="translate(-85.96 -232.78)"/><path class="cls-6" d="M204.11,377.05c.7-3.51,1.16-7-.24-11-20.79-40.42-41.58-80.61-62.38-121-20.79,11.21-33.87,26.16-41.11,44.15-10.52,38.08-.7,53.5,14.25,69.39h4l-4.91,13.32c-23.36-21-32.47-47-24.76-79.44,9.34-31.3,30.6-49.06,58.41-59.34,22.42,43.46,45.09,86.91,67.51,130.37,3,13.31,0,24.53-13.08,30.83-8.64,3.51-18.46,3.74-30.14,2.11-9.81-2.34-16.59-7.48-19.39-16.82.24-4.21.24-8.41.47-12.62,3.5,1.17,7.24,2.57,10.75,3.74v6.54c1.16,7.48,9.57,10.51,15.42,11C190.56,389,201.77,386.39,204.11,377.05Z" transform="translate(-85.96 -232.78)"/><path class="cls-7" d="M122.1,311.16c.47-16.35,7.71-29.43,23.37-40.18,1.4,2.33,2.8,4.44,4,6.77-7.95,7-14.49,12.85-16.82,27.1s4,30.61,16.58,40.89c12.85,10.28,26.64,12.38,40.66,11.68,1.4,2.57,2.8,5.14,4,7.71-16.12.47-31.31.23-47-10.28C131.45,344.34,121.87,327.28,122.1,311.16Z" transform="translate(-85.96 -232.78)"/><path class="cls-8" d="M122.1,311.16c.47-16.35,7.71-29.43,23.37-40.18,1.4,2.33,2.8,4.44,4,6.77-7.95,7-14.49,12.85-16.82,27.1s4,30.61,16.58,40.89c12.85,10.28,26.64,12.38,40.66,11.68,1.4,2.57,2.8,5.14,4,7.71-16.12.47-31.31.23-47-10.28C131.45,344.34,121.87,327.28,122.1,311.16Z" transform="translate(-85.96 -232.78)"/><path class="cls-7" d="M222.56,269.81c-17.75-10.05-34.81-12.62-51.39-10.51,1.16,2.57,2.57,5.14,3.73,7.71a73.93,73.93,0,0,1,38.79,6.77c5.84,3.51,10,7.24,12.85,11.22a39.25,39.25,0,0,0-1.17,5.14h15.18A61.4,61.4,0,0,0,222.56,269.81Z" transform="translate(-85.96 -232.78)"/><path class="cls-8" d="M222.56,269.81c-17.75-10.05-34.81-12.62-51.39-10.51,1.16,2.57,2.57,5.14,3.73,7.71a73.93,73.93,0,0,1,38.79,6.77c5.84,3.51,10,7.24,12.85,11.22a39.25,39.25,0,0,0-1.17,5.14h15.18A61.4,61.4,0,0,0,222.56,269.81Z" transform="translate(-85.96 -232.78)"/><path class="cls-7" d="M224,332c.93,2.1,1.63,4.2,2.57,6.3-2.81,4.68-6.55,7.48-10.28,9.82,1.4,2.33,3,4.44,4.67,6.77,10-6.54,15.65-14.48,20.09-22.43C235.41,332.19,229.57,332.19,224,332Z" transform="translate(-85.96 -232.78)"/><path class="cls-8" d="M224,332c.93,2.1,1.63,4.2,2.57,6.3-2.81,4.68-6.55,7.48-10.28,9.82,1.4,2.33,3,4.44,4.67,6.77,10-6.54,15.65-14.48,20.09-22.43C235.41,332.19,229.57,332.19,224,332Z" transform="translate(-85.96 -232.78)"/><text class="cls-9" transform="translate(1012.24 139.36)">E.I.R.L</text><rect class="cls-10" x="514.14" y="61.56" width="460.48" height="3.5"/><rect class="cls-10" x="514.14" y="88.9" width="460.48" height="3.5"/><rect class="cls-10" x="512.28" y="110.62" width="460.71" height="3.5"/></svg>